# xmcd
#
# Track frame offsets:
#	150
#	17583
#	37242
#	53687
#	71045
#	92194
#	109122
#	123421
#	142524
#	159569
#	178834
#	201232
#
# Disc length: 2886 seconds
#
# Revision: 0
# Processed by: cddbd v1.5.2PL0 Copyright (c) Steve Scherf et al.
# Submitted via: EasyCDDAExtractor 12.0.0.1
#
DISCID=a50b440c
DTITLE=Marta Sanchez - Miss Sanchez
DYEAR=2007
DGENRE=Latin
TTITLE0=Levantate
TTITLE1=Si Me Cambian Los Recuerdos (Con Alaska)
TTITLE2=Superstar
TTITLE3=Reina De La Radio
TTITLE4=Desafinados
TTITLE5=Embrujada (Con Tino Casal)
TTITLE6=Contradicciones
TTITLE7=High Energy
TTITLE8=Te Imagino
TTITLE9=Frida Y Sus Flores
TTITLE10=Tienes Que Vivir (A Mi Hija Paula)
TTITLE11=La Noche Que Acabo
EXTD=
EXTT0=
EXTT1=
EXTT2=
EXTT3=
EXTT4=
EXTT5=
EXTT6=
EXTT7=
EXTT8=
EXTT9=
EXTT10=
EXTT11=
PLAYORDER=
